<svg width="32" height="32" viewBox="0 0 32 32" fill="none" xmlns="http://www.w3.org/2000/svg">
<path d="M16 5.33329C21.88 5.33329 26.6667 10.12 26.6667 16C26.6667 21.88 21.88 26.6666 16 26.6666C10.12 26.6666 5.33335 21.88 5.33335 16C5.33335 10.12 10.12 5.33329 16 5.33329ZM16 2.66663C8.64002 2.66663 2.66669 8.63996 2.66669 16C2.66669 23.36 8.64002 29.3333 16 29.3333C23.36 29.3333 29.3334 23.36 29.3334 16C29.3334 8.63996 23.36 2.66663 16 2.66663ZM17.3334 16V10.6666H14.6667V16H10.6667L16 21.3333L21.3334 16H17.3334Z" fill="#AFAFAF"/>
</svg>
